<?xml version="1.0"?><svg version="1.2" baseProfile="tiny-ps" viewBox="0 0 300 300" xmlns="http://www.w3.org/2000/svg" xmlns:xlink="http://www.w3.org/1999/xlink"><title>Anna Scott Coaching</title><g><g fill="#fefefe" transform="matrix(.1 0 0 -.1 0 300)"><path d="M0 1500V0h3000v3000H0V1500z"/></g><g fill="#e9e7e8" transform="matrix(.1 0 0 -.1 0 300)"><path d="M0 1500V0h3000v3000H0V1500zm2890 0V110H100v2780h2790V1500zM795 2358c-32-73-71-162-88-198-16-36-44-99-62-140s-46-104-63-140c-33-72-92-210-92-216 0-2 19-4 43-4h43l24 53c12 28 35 80 51 115l28 62h422l6-17c6-17 13-34 67-155l25-58h81v19c0 11-4 22-9 25s-12 17-15 31c-3 13-25 64-47 112-47 101-47 101-129 288-34 77-71 160-83 185-11 25-33 73-48 108l-28 62h-67l-59-132zm105-8c0-5 36-91 80-191s80-184 80-186c0-1-78-3-174-3H711l35 78c19 42 39 86 44 97 47 103 69 156 79 188l13 37 9-5c5-4 9-10 9-15zm799 136c-2-2-3-189-1-415l2-411h80v682l108-147c59-81 119-165 135-187 15-21 32-45 38-51 5-7 58-76 116-154l105-143h78v830h-80l-2-340-3-341-95 131c-52 72-107 145-122 163s-28 35-28 39-6 13-13 20c-29 30-77 97-77 106 0 6-4 12-8 14-5 2-44 49-86 106l-78 102h-32c-18 0-35-2-37-4zM577 1363l-7-6V540h80v683l70-94c38-52 84-114 102-139s37-49 41-55c4-5 25-33 45-60 20-28 84-115 142-193l105-142h75v831l-37-3-38-3-3-339-2-340-75 102c-41 55-75 103-75 105 0 3-11 17-25 33s-59 76-101 134c-43 58-80 107-83 110s-21 28-40 55c-19 28-52 71-74 98l-39 47h-27c-15 0-31-3-34-7zm1470-20c-8-15-26-55-40-88s-44-100-66-148c-23-49-41-90-41-92 0-3-16-40-36-82-49-108-83-183-160-360l-14-33h100v10c0 5 21 57 46 115l46 105h423l19-48c10-26 33-77 49-115l30-67h44c23 0 43 1 43 3 0 4-69 163-103 237-14 30-71 159-126 285-56 127-110 246-119 265l-18 35-31 3-32 3-14-28zm109-243c9-19 21-48 29-65 7-16 18-41 23-55 6-14 20-46 31-72 12-26 21-49 21-52 0-4-76-6-170-6-93 0-170 2-170 4 0 4 81 190 116 264 13 29 24 54 24 56s7 21 16 42l16 38 25-59c13-33 31-76 39-95z"/></g><g fill="#b4b3b4" transform="matrix(.1 0 0 -.1 0 300)"><path d="M0 1500V0h3000v3000H0V1500zm2895 0V105l-1397-3-1398-2v2800l1398-2 1397-3V1500zM831 2428c-13-29-42-93-63-143-22-49-53-119-70-155-16-36-41-92-55-125s-41-94-60-135c-50-108-83-188-83-200v-11l37 3 36 3 52 115 51 115h425l51-117 50-118h78v8c0 4-81 187-178 407l-179 400-34 3-35 3-23-53zm149-256c45-106 80-195 78-198-3-2-82-3-176-2l-170 3 86 202c48 111 89 199 93 195 3-4 43-94 89-200zm720-102v-410h70v703l72-99c39-55 156-213 260-352l188-253 33 3 32 3 3 408 2 407h-80l-2-338-3-338-250 337-250 338h-37l-38 1v-410zM572 953l3-408 38-3 37-3v695l50-69c27-39 142-195 256-347l205-278h69v820h-83l5-340c3-187 4-340 2-340-3 0-342 453-459 613l-49 67h-76l2-407zm1480 390c-19-35-352-790-352-796 0-4 18-7 39-7h39l17 42c9 23 32 77 52 120l36 78 210-2 210-3 52-115 51-115 38-3 39-3-5 19c-3 11-84 196-179 411l-173 391h-65l-9-17zm135-301c46-107 82-196 80-198-2-3-83-3-180-2l-175 3 25 60c14 33 50 116 80 185 29 69 59 136 65 150l11 25 5-15c3-8 43-102 89-208z"/></g><g fill="#737373" transform="matrix(.1 0 0 -.1 0 300)"><path d="M0 1500V0h3000v3000H0V1500zm2900 0V100H100v2800h2800V1500zM856 2471c-12-19-356-795-356-803v-7l35 1 34 1 52 119 52 118 216-2 215-3 51-115 51-115 34 1 35 1-2 9c-1 5-81 187-177 404l-175 395-30 3-29 3-6-10zm127-298c48-112 87-205 87-208s-81-5-180-5H710v11c0 6 35 93 79 193 43 99 82 192 86 205l7 23 7-8c4-5 47-100 94-211zm717-98v-405l20-1c11-1 26-2 33-3l12-1 5 350 5 350 34-50c19-27 136-186 259-352l225-303h57v821l-32-3-33-3v-342c0-189-1-343-2-343-2 0-62 80-135 178-72 97-187 252-255 345l-125 167h-68v-405zM580 949V539l33 3 32 3-1 348-1 348 8-8c4-4 121-161 259-348l252-340h63l3 408 2 407h-70v-347l-1-348-17 21c-9 12-126 168-260 348l-242 326h-60V949zm1357 129c-69-156-151-338-181-406l-55-123 14-5c7-3 24-4 37-2l23 3 51 115 51 115 215 3 215 2 50-117 50-118 36-3 37-3v8c0 4-80 188-178 408l-179 400-30 3-30 3-126-283zm333-229v-9h-180c-99 0-180 3-180 6 0 4 36 88 79 188 44 99 85 194 91 210l11 29 89-207c50-115 90-212 90-217z"/></g><g fill="#403d3e" transform="matrix(.1 0 0 -.1 0 300)"><path d="M0 1500V0h3000v3000H0V1500zm2898-3 2-1407-1402 2L95 95l-3 1395c-1 767 0 1401 3 1408l4 12 1398-2 1398-3 3-1408zM846 2448c-27-65-338-763-343-771l-5-8 37 3 36 3 48 108c27 60 52 112 58 118l9 9 209-2 209-3 50-117 51-118h67l-7 18c-20 52-340 769-348 780l-9 12h-48l-14-32zm135-263c49-114 89-211 89-216v-9H885c-102 0-185 2-185 5 0 2 35 85 79 182 43 98 84 195 92 215 7 21 15 36 17 34s44-97 93-211zm729-110v-405h60v702l150-204c83-112 199-269 258-350l107-147h33l32-1v810h-60v-352l-1-353-17 21c-9 12-127 171-262 353l-245 330-27 1h-28v-405zM587 1353l-7-6V550h60l2 351 3 351 34-48c37-51 140-192 355-481l128-173h58v810h-61l3-350 3-350-6 2c-4 2-80 102-169 223-90 121-205 277-257 348l-95 127h-22c-13 0-26-3-29-7zm1475-5c-5-7-32-65-60-128-27-63-104-238-171-389-66-150-121-275-121-277s15-4 33-4h33l49 115 49 115h433l31-67c17-38 40-89 51-115l20-48h72l-10 18c-5 9-82 181-171 382s-168 375-176 388l-14 22h-19c-10 0-23-6-29-12zm56-130c11-29 52-124 91-212 39-87 71-160 71-162s-83-4-185-4h-185v9c0 6 33 85 74 178 40 92 79 185 87 206 7 20 16 37 20 37s17-24 27-52z"/></g><g fill="#221f20" transform="matrix(.1 0 0 -.1 0 300)"><path d="M0 1500V0h3000v3000H0V1500zm2905 0V95l-1407-3L90 90v2820l1408-2 1407-3V1500zM841 2428c-10-24-89-201-175-395s-156-354-156-357c0-4 13-6 29-6h29l11 28c6 15 28 68 50 117l39 90 219 3 219 2 50-117 51-118 33-3 32-3-4 8c-3 4-83 185-179 401l-173 392h-57l-18-42zm144-241c50-116 92-215 93-219l4-8H700v10c0 6 15 43 33 83 34 73 130 297 140 330 4 9 10 17 14 17 4-1 49-96 98-213zm725-118v-400l26 3 25 3-1 348v347h9c5 0 31-31 58-68 26-38 142-195 257-350l210-282h56v800h-60l-2-347-3-348-220 295c-121 162-237 319-258 348l-39 52h-58v-401zM590 950V550h50v700h8c4 0 19-18 33-40s129-180 255-350l229-309 28-1h27v801l-27-3-28-3 2-350 1-350-21 26c-12 14-131 173-265 352l-243 327h-49V950zm1323 58c-84-189-164-369-178-401l-25-58 32 3 32 3 47 110 48 110 221 3 221 2 28-62c16-35 39-87 52-115l23-53h28c32 0 33 1 13 43-8 18-86 194-174 392l-160 360-28 3-28 3-152-343zm202 225c10-27 51-121 92-211 40-90 73-168 73-173v-9h-190c-104 0-190 2-190 4 0 3 38 90 85 195 46 104 87 201 91 216 9 37 19 31 39-22z"/></g></g></svg>